<?xml version="1.0" encoding="utf-8"?>
<!-- Generator: Adobe Illustrator 19.0.0, SVG Export Plug-In . SVG Version: 6.00 Build 0)  -->
<svg version="1.1" id="BKG_Grid" xmlns="http://www.w3.org/2000/svg" xmlns:xlink="http://www.w3.org/1999/xlink" x="0px" y="0px"
	 viewBox="0 0 820 312" style="enable-background:new 0 0 820 312;" xml:space="preserve">
<style type="text/css">
	.st0{clip-path:url(#SVGID_2_);}
	.st1{fill:none;stroke:#E8EAED;stroke-width:0.6403;stroke-miterlimit:10;}
	.st2{clip-path:url(#SVGID_4_);}
	.st3{clip-path:url(#SVGID_6_);}
	.st4{clip-path:url(#SVGID_8_);}
	.st5{clip-path:url(#SVGID_10_);}
	.st6{clip-path:url(#SVGID_12_);}
	.st7{clip-path:url(#SVGID_14_);}
	.st8{clip-path:url(#SVGID_16_);}
</style>
<g>
	<defs>
		<polygon id="SVGID_1_" points="-20,981.8 -840.2,981.8 -840.2,669.8 -20.1,669.5 		"/>
	</defs>
	<clipPath id="SVGID_2_">
		<use xlink:href="#SVGID_1_"  style="overflow:visible;"/>
	</clipPath>
	<g class="st0">
		<line class="st1" x1="-813.8" y1="520.9" x2="-813.8" y2="981.8"/>
		<line class="st1" x1="-788.2" y1="520.9" x2="-788.2" y2="981.8"/>
		<line class="st1" x1="-762.6" y1="520.9" x2="-762.6" y2="981.8"/>
		<line class="st1" x1="-737" y1="520.9" x2="-737" y2="981.8"/>
		<line class="st1" x1="-711.4" y1="520.9" x2="-711.4" y2="981.8"/>
		<line class="st1" x1="-685.8" y1="520.9" x2="-685.8" y2="981.8"/>
		<line class="st1" x1="-660.2" y1="520.9" x2="-660.2" y2="981.8"/>
		<line class="st1" x1="-634.6" y1="520.9" x2="-634.6" y2="981.8"/>
		<line class="st1" x1="-609" y1="520.9" x2="-609" y2="981.8"/>
		<line class="st1" x1="-583.4" y1="520.9" x2="-583.4" y2="981.8"/>
		<line class="st1" x1="-557.8" y1="520.9" x2="-557.8" y2="981.8"/>
		<line class="st1" x1="-532.1" y1="520.9" x2="-532.1" y2="981.8"/>
		<line class="st1" x1="-506.5" y1="520.9" x2="-506.5" y2="981.8"/>
		<line class="st1" x1="-480.9" y1="520.9" x2="-480.9" y2="981.8"/>
		<line class="st1" x1="-455.3" y1="520.9" x2="-455.3" y2="981.8"/>
		<line class="st1" x1="-429.7" y1="520.9" x2="-429.7" y2="981.8"/>
		<line class="st1" x1="-404.1" y1="520.9" x2="-404.1" y2="981.8"/>
		<line class="st1" x1="-378.5" y1="520.9" x2="-378.5" y2="981.8"/>
		<line class="st1" x1="-352.9" y1="520.9" x2="-352.9" y2="981.8"/>
		<line class="st1" x1="-327.3" y1="520.9" x2="-327.3" y2="981.8"/>
		<line class="st1" x1="-301.7" y1="520.9" x2="-301.7" y2="981.8"/>
		<line class="st1" x1="-276.1" y1="520.9" x2="-276.1" y2="981.8"/>
		<line class="st1" x1="-250.5" y1="520.9" x2="-250.5" y2="981.8"/>
		<line class="st1" x1="-224.9" y1="520.9" x2="-224.9" y2="981.8"/>
		<line class="st1" x1="-199.3" y1="520.9" x2="-199.3" y2="981.8"/>
		<line class="st1" x1="-173.6" y1="520.9" x2="-173.6" y2="981.8"/>
		<line class="st1" x1="-148" y1="520.9" x2="-148" y2="981.8"/>
		<line class="st1" x1="-122.4" y1="520.9" x2="-122.4" y2="981.8"/>
		<line class="st1" x1="-96.8" y1="520.9" x2="-96.8" y2="981.8"/>
		<line class="st1" x1="-71.2" y1="520.9" x2="-71.2" y2="981.8"/>
		<line class="st1" x1="-45.6" y1="520.9" x2="-45.6" y2="981.8"/>
		<line class="st1" x1="-20" y1="546.5" x2="-839.4" y2="546.5"/>
		<line class="st1" x1="-20" y1="572.1" x2="-839.4" y2="572.1"/>
		<line class="st1" x1="-20" y1="597.7" x2="-839.4" y2="597.7"/>
		<line class="st1" x1="-20" y1="623.3" x2="-839.4" y2="623.3"/>
		<line class="st1" x1="-20" y1="648.9" x2="-839.4" y2="648.9"/>
		<line class="st1" x1="-20" y1="674.6" x2="-839.4" y2="674.6"/>
		<line class="st1" x1="-20" y1="700.2" x2="-839.4" y2="700.2"/>
		<line class="st1" x1="-20" y1="725.8" x2="-839.4" y2="725.8"/>
		<line class="st1" x1="-20" y1="751.4" x2="-839.4" y2="751.4"/>
		<line class="st1" x1="-20" y1="777" x2="-839.4" y2="777"/>
		<line class="st1" x1="-20" y1="802.6" x2="-839.4" y2="802.6"/>
		<line class="st1" x1="-20" y1="828.2" x2="-839.4" y2="828.2"/>
		<line class="st1" x1="-20" y1="853.8" x2="-839.4" y2="853.8"/>
		<line class="st1" x1="-20" y1="879.4" x2="-839.4" y2="879.4"/>
		<line class="st1" x1="-20" y1="905" x2="-839.4" y2="905"/>
		<line class="st1" x1="-20" y1="956.2" x2="-839.4" y2="956.2"/>
		<line class="st1" x1="-20" y1="930.6" x2="-839.4" y2="930.6"/>
	</g>
</g>
<g>
	<defs>
		<polygon id="SVGID_3_" points="-20,312.3 -840.2,312.3 -840.2,0.3 -20.1,0 		"/>
	</defs>
	<clipPath id="SVGID_4_">
		<use xlink:href="#SVGID_3_"  style="overflow:visible;"/>
	</clipPath>
	<g class="st2">
		<line class="st1" x1="-813.8" y1="-148.6" x2="-813.8" y2="312.3"/>
		<line class="st1" x1="-788.2" y1="-148.6" x2="-788.2" y2="312.3"/>
		<line class="st1" x1="-762.6" y1="-148.6" x2="-762.6" y2="312.3"/>
		<line class="st1" x1="-737" y1="-148.6" x2="-737" y2="312.3"/>
		<line class="st1" x1="-711.4" y1="-148.6" x2="-711.4" y2="312.3"/>
		<line class="st1" x1="-685.8" y1="-148.6" x2="-685.8" y2="312.3"/>
		<line class="st1" x1="-660.2" y1="-148.6" x2="-660.2" y2="312.3"/>
		<line class="st1" x1="-634.6" y1="-148.6" x2="-634.6" y2="312.3"/>
		<line class="st1" x1="-609" y1="-148.6" x2="-609" y2="312.3"/>
		<line class="st1" x1="-583.4" y1="-148.6" x2="-583.4" y2="312.3"/>
		<line class="st1" x1="-557.8" y1="-148.6" x2="-557.8" y2="312.3"/>
		<line class="st1" x1="-532.1" y1="-148.6" x2="-532.1" y2="312.3"/>
		<line class="st1" x1="-506.5" y1="-148.6" x2="-506.5" y2="312.3"/>
		<line class="st1" x1="-480.9" y1="-148.6" x2="-480.9" y2="312.3"/>
		<line class="st1" x1="-455.3" y1="-148.6" x2="-455.3" y2="312.3"/>
		<line class="st1" x1="-429.7" y1="-148.6" x2="-429.7" y2="312.3"/>
		<line class="st1" x1="-404.1" y1="-148.6" x2="-404.1" y2="312.3"/>
		<line class="st1" x1="-378.5" y1="-148.6" x2="-378.5" y2="312.3"/>
		<line class="st1" x1="-352.9" y1="-148.6" x2="-352.9" y2="312.3"/>
		<line class="st1" x1="-327.3" y1="-148.6" x2="-327.3" y2="312.3"/>
		<line class="st1" x1="-301.7" y1="-148.6" x2="-301.7" y2="312.3"/>
		<line class="st1" x1="-276.1" y1="-148.6" x2="-276.1" y2="312.3"/>
		<line class="st1" x1="-250.5" y1="-148.6" x2="-250.5" y2="312.3"/>
		<line class="st1" x1="-224.9" y1="-148.6" x2="-224.9" y2="312.3"/>
		<line class="st1" x1="-199.3" y1="-148.6" x2="-199.3" y2="312.3"/>
		<line class="st1" x1="-173.6" y1="-148.6" x2="-173.6" y2="312.3"/>
		<line class="st1" x1="-148" y1="-148.6" x2="-148" y2="312.3"/>
		<line class="st1" x1="-122.4" y1="-148.6" x2="-122.4" y2="312.3"/>
		<line class="st1" x1="-96.8" y1="-148.6" x2="-96.8" y2="312.3"/>
		<line class="st1" x1="-71.2" y1="-148.6" x2="-71.2" y2="312.3"/>
		<line class="st1" x1="-45.6" y1="-148.6" x2="-45.6" y2="312.3"/>
		<line class="st1" x1="-20" y1="-123" x2="-839.4" y2="-123"/>
		<line class="st1" x1="-20" y1="-97.4" x2="-839.4" y2="-97.4"/>
		<line class="st1" x1="-20" y1="-71.8" x2="-839.4" y2="-71.8"/>
		<line class="st1" x1="-20" y1="-46.2" x2="-839.4" y2="-46.2"/>
		<line class="st1" x1="-20" y1="-20.6" x2="-839.4" y2="-20.6"/>
		<line class="st1" x1="-20" y1="5.1" x2="-839.4" y2="5.1"/>
		<line class="st1" x1="-20" y1="30.7" x2="-839.4" y2="30.7"/>
		<line class="st1" x1="-20" y1="56.3" x2="-839.4" y2="56.3"/>
		<line class="st1" x1="-20" y1="81.9" x2="-839.4" y2="81.9"/>
		<line class="st1" x1="-20" y1="107.5" x2="-839.4" y2="107.5"/>
		<line class="st1" x1="-20" y1="133.1" x2="-839.4" y2="133.1"/>
		<line class="st1" x1="-20" y1="158.7" x2="-839.4" y2="158.7"/>
		<line class="st1" x1="-20" y1="184.3" x2="-839.4" y2="184.3"/>
		<line class="st1" x1="-20" y1="209.9" x2="-839.4" y2="209.9"/>
		<line class="st1" x1="-20" y1="235.5" x2="-839.4" y2="235.5"/>
		<line class="st1" x1="-20" y1="286.7" x2="-839.4" y2="286.7"/>
		<line class="st1" x1="-20" y1="261.1" x2="-839.4" y2="261.1"/>
	</g>
</g>
<g>
	<defs>
		<polygon id="SVGID_5_" points="820,312.3 -0.2,312.3 -0.2,0.3 819.9,0 		"/>
	</defs>
	<clipPath id="SVGID_6_">
		<use xlink:href="#SVGID_5_"  style="overflow:visible;"/>
	</clipPath>
	<g class="st3">
		<line class="st1" x1="26.2" y1="-148.6" x2="26.2" y2="312.3"/>
		<line class="st1" x1="51.8" y1="-148.6" x2="51.8" y2="312.3"/>
		<line class="st1" x1="77.4" y1="-148.6" x2="77.4" y2="312.3"/>
		<line class="st1" x1="103" y1="-148.6" x2="103" y2="312.3"/>
		<line class="st1" x1="128.6" y1="-148.6" x2="128.6" y2="312.3"/>
		<line class="st1" x1="154.2" y1="-148.6" x2="154.2" y2="312.3"/>
		<line class="st1" x1="179.8" y1="-148.6" x2="179.8" y2="312.3"/>
		<line class="st1" x1="205.4" y1="-148.6" x2="205.4" y2="312.3"/>
		<line class="st1" x1="231" y1="-148.6" x2="231" y2="312.3"/>
		<line class="st1" x1="256.6" y1="-148.6" x2="256.6" y2="312.3"/>
		<line class="st1" x1="282.2" y1="-148.6" x2="282.2" y2="312.3"/>
		<line class="st1" x1="307.9" y1="-148.6" x2="307.9" y2="312.3"/>
		<line class="st1" x1="333.5" y1="-148.6" x2="333.5" y2="312.3"/>
		<line class="st1" x1="359.1" y1="-148.6" x2="359.1" y2="312.3"/>
		<line class="st1" x1="384.7" y1="-148.6" x2="384.7" y2="312.3"/>
		<line class="st1" x1="410.3" y1="-148.6" x2="410.3" y2="312.3"/>
		<line class="st1" x1="435.9" y1="-148.6" x2="435.9" y2="312.3"/>
		<line class="st1" x1="461.5" y1="-148.6" x2="461.5" y2="312.3"/>
		<line class="st1" x1="487.1" y1="-148.6" x2="487.1" y2="312.3"/>
		<line class="st1" x1="512.7" y1="-148.6" x2="512.7" y2="312.3"/>
		<line class="st1" x1="538.3" y1="-148.6" x2="538.3" y2="312.3"/>
		<line class="st1" x1="563.9" y1="-148.6" x2="563.9" y2="312.3"/>
		<line class="st1" x1="589.5" y1="-148.6" x2="589.5" y2="312.3"/>
		<line class="st1" x1="615.1" y1="-148.6" x2="615.1" y2="312.3"/>
		<line class="st1" x1="640.7" y1="-148.6" x2="640.7" y2="312.3"/>
		<line class="st1" x1="666.4" y1="-148.6" x2="666.4" y2="312.3"/>
		<line class="st1" x1="692" y1="-148.6" x2="692" y2="312.3"/>
		<line class="st1" x1="717.6" y1="-148.6" x2="717.6" y2="312.3"/>
		<line class="st1" x1="743.2" y1="-148.6" x2="743.2" y2="312.3"/>
		<line class="st1" x1="768.8" y1="-148.6" x2="768.8" y2="312.3"/>
		<line class="st1" x1="794.4" y1="-148.6" x2="794.4" y2="312.3"/>
		<line class="st1" x1="820" y1="-123" x2="0.6" y2="-123"/>
		<line class="st1" x1="820" y1="-97.4" x2="0.6" y2="-97.4"/>
		<line class="st1" x1="820" y1="-71.8" x2="0.6" y2="-71.8"/>
		<line class="st1" x1="820" y1="-46.2" x2="0.6" y2="-46.2"/>
		<line class="st1" x1="820" y1="-20.6" x2="0.6" y2="-20.6"/>
		<line class="st1" x1="820" y1="5.1" x2="0.6" y2="5.1"/>
		<line class="st1" x1="820" y1="30.7" x2="0.6" y2="30.7"/>
		<line class="st1" x1="820" y1="56.3" x2="0.6" y2="56.3"/>
		<line class="st1" x1="820" y1="81.9" x2="0.6" y2="81.9"/>
		<line class="st1" x1="820" y1="107.5" x2="0.6" y2="107.5"/>
		<line class="st1" x1="820" y1="133.1" x2="0.6" y2="133.1"/>
		<line class="st1" x1="820" y1="158.7" x2="0.6" y2="158.7"/>
		<line class="st1" x1="820" y1="184.3" x2="0.6" y2="184.3"/>
		<line class="st1" x1="820" y1="209.9" x2="0.6" y2="209.9"/>
		<line class="st1" x1="820" y1="235.5" x2="0.6" y2="235.5"/>
		<line class="st1" x1="820" y1="286.7" x2="0.6" y2="286.7"/>
		<line class="st1" x1="820" y1="261.1" x2="0.6" y2="261.1"/>
	</g>
</g>
<g>
	<defs>
		<polygon id="SVGID_7_" points="1660,312.3 839.8,312.3 839.8,0.3 1659.9,0 		"/>
	</defs>
	<clipPath id="SVGID_8_">
		<use xlink:href="#SVGID_7_"  style="overflow:visible;"/>
	</clipPath>
	<g class="st4">
		<line class="st1" x1="866.2" y1="-148.6" x2="866.2" y2="312.3"/>
		<line class="st1" x1="891.8" y1="-148.6" x2="891.8" y2="312.3"/>
		<line class="st1" x1="917.4" y1="-148.6" x2="917.4" y2="312.3"/>
		<line class="st1" x1="943" y1="-148.6" x2="943" y2="312.3"/>
		<line class="st1" x1="968.6" y1="-148.6" x2="968.6" y2="312.3"/>
		<line class="st1" x1="994.2" y1="-148.6" x2="994.2" y2="312.3"/>
		<line class="st1" x1="1019.8" y1="-148.6" x2="1019.8" y2="312.3"/>
		<line class="st1" x1="1045.4" y1="-148.6" x2="1045.4" y2="312.3"/>
		<line class="st1" x1="1071" y1="-148.6" x2="1071" y2="312.3"/>
		<line class="st1" x1="1096.6" y1="-148.6" x2="1096.6" y2="312.3"/>
		<line class="st1" x1="1122.2" y1="-148.6" x2="1122.2" y2="312.3"/>
		<line class="st1" x1="1147.9" y1="-148.6" x2="1147.9" y2="312.3"/>
		<line class="st1" x1="1173.5" y1="-148.6" x2="1173.5" y2="312.3"/>
		<line class="st1" x1="1199.1" y1="-148.6" x2="1199.1" y2="312.3"/>
		<line class="st1" x1="1224.7" y1="-148.6" x2="1224.7" y2="312.3"/>
		<line class="st1" x1="1250.3" y1="-148.6" x2="1250.3" y2="312.3"/>
		<line class="st1" x1="1275.9" y1="-148.6" x2="1275.9" y2="312.3"/>
		<line class="st1" x1="1301.5" y1="-148.6" x2="1301.5" y2="312.3"/>
		<line class="st1" x1="1327.1" y1="-148.6" x2="1327.1" y2="312.3"/>
		<line class="st1" x1="1352.7" y1="-148.6" x2="1352.7" y2="312.3"/>
		<line class="st1" x1="1378.3" y1="-148.6" x2="1378.3" y2="312.3"/>
		<line class="st1" x1="1403.9" y1="-148.6" x2="1403.9" y2="312.3"/>
		<line class="st1" x1="1429.5" y1="-148.6" x2="1429.5" y2="312.3"/>
		<line class="st1" x1="1455.1" y1="-148.6" x2="1455.1" y2="312.3"/>
		<line class="st1" x1="1480.7" y1="-148.6" x2="1480.7" y2="312.3"/>
		<line class="st1" x1="1506.4" y1="-148.6" x2="1506.4" y2="312.3"/>
		<line class="st1" x1="1532" y1="-148.6" x2="1532" y2="312.3"/>
		<line class="st1" x1="1557.6" y1="-148.6" x2="1557.6" y2="312.3"/>
		<line class="st1" x1="1583.2" y1="-148.6" x2="1583.2" y2="312.3"/>
		<line class="st1" x1="1608.8" y1="-148.6" x2="1608.8" y2="312.3"/>
		<line class="st1" x1="1634.4" y1="-148.6" x2="1634.4" y2="312.3"/>
		<line class="st1" x1="1660" y1="-123" x2="840.6" y2="-123"/>
		<line class="st1" x1="1660" y1="-97.4" x2="840.6" y2="-97.4"/>
		<line class="st1" x1="1660" y1="-71.8" x2="840.6" y2="-71.8"/>
		<line class="st1" x1="1660" y1="-46.2" x2="840.6" y2="-46.2"/>
		<line class="st1" x1="1660" y1="-20.6" x2="840.6" y2="-20.6"/>
		<line class="st1" x1="1660" y1="5.1" x2="840.6" y2="5.1"/>
		<line class="st1" x1="1660" y1="30.7" x2="840.6" y2="30.7"/>
		<line class="st1" x1="1660" y1="56.3" x2="840.6" y2="56.3"/>
		<line class="st1" x1="1660" y1="81.9" x2="840.6" y2="81.9"/>
		<line class="st1" x1="1660" y1="107.5" x2="840.6" y2="107.5"/>
		<line class="st1" x1="1660" y1="133.1" x2="840.6" y2="133.1"/>
		<line class="st1" x1="1660" y1="158.7" x2="840.6" y2="158.7"/>
		<line class="st1" x1="1660" y1="184.3" x2="840.6" y2="184.3"/>
		<line class="st1" x1="1660" y1="209.9" x2="840.6" y2="209.9"/>
		<line class="st1" x1="1660" y1="235.5" x2="840.6" y2="235.5"/>
		<line class="st1" x1="1660" y1="286.7" x2="840.6" y2="286.7"/>
		<line class="st1" x1="1660" y1="261.1" x2="840.6" y2="261.1"/>
	</g>
</g>
<g>
	<defs>
		<polygon id="SVGID_9_" points="-20,644.3 -840.2,644.3 -840.2,332.3 -20.1,332 		"/>
	</defs>
	<clipPath id="SVGID_10_">
		<use xlink:href="#SVGID_9_"  style="overflow:visible;"/>
	</clipPath>
	<g class="st5">
		<line class="st1" x1="-813.8" y1="183.4" x2="-813.8" y2="644.3"/>
		<line class="st1" x1="-788.2" y1="183.4" x2="-788.2" y2="644.3"/>
		<line class="st1" x1="-762.6" y1="183.4" x2="-762.6" y2="644.3"/>
		<line class="st1" x1="-737" y1="183.4" x2="-737" y2="644.3"/>
		<line class="st1" x1="-711.4" y1="183.4" x2="-711.4" y2="644.3"/>
		<line class="st1" x1="-685.8" y1="183.4" x2="-685.8" y2="644.3"/>
		<line class="st1" x1="-660.2" y1="183.4" x2="-660.2" y2="644.3"/>
		<line class="st1" x1="-634.6" y1="183.4" x2="-634.6" y2="644.3"/>
		<line class="st1" x1="-609" y1="183.4" x2="-609" y2="644.3"/>
		<line class="st1" x1="-583.4" y1="183.4" x2="-583.4" y2="644.3"/>
		<line class="st1" x1="-557.8" y1="183.4" x2="-557.8" y2="644.3"/>
		<line class="st1" x1="-532.1" y1="183.4" x2="-532.1" y2="644.3"/>
		<line class="st1" x1="-506.5" y1="183.4" x2="-506.5" y2="644.3"/>
		<line class="st1" x1="-480.9" y1="183.4" x2="-480.9" y2="644.3"/>
		<line class="st1" x1="-455.3" y1="183.4" x2="-455.3" y2="644.3"/>
		<line class="st1" x1="-429.7" y1="183.4" x2="-429.7" y2="644.3"/>
		<line class="st1" x1="-404.1" y1="183.4" x2="-404.1" y2="644.3"/>
		<line class="st1" x1="-378.5" y1="183.4" x2="-378.5" y2="644.3"/>
		<line class="st1" x1="-352.9" y1="183.4" x2="-352.9" y2="644.3"/>
		<line class="st1" x1="-327.3" y1="183.4" x2="-327.3" y2="644.3"/>
		<line class="st1" x1="-301.7" y1="183.4" x2="-301.7" y2="644.3"/>
		<line class="st1" x1="-276.1" y1="183.4" x2="-276.1" y2="644.3"/>
		<line class="st1" x1="-250.5" y1="183.4" x2="-250.5" y2="644.3"/>
		<line class="st1" x1="-224.9" y1="183.4" x2="-224.9" y2="644.3"/>
		<line class="st1" x1="-199.3" y1="183.4" x2="-199.3" y2="644.3"/>
		<line class="st1" x1="-173.6" y1="183.4" x2="-173.6" y2="644.3"/>
		<line class="st1" x1="-148" y1="183.4" x2="-148" y2="644.3"/>
		<line class="st1" x1="-122.4" y1="183.4" x2="-122.4" y2="644.3"/>
		<line class="st1" x1="-96.8" y1="183.4" x2="-96.8" y2="644.3"/>
		<line class="st1" x1="-71.2" y1="183.4" x2="-71.2" y2="644.3"/>
		<line class="st1" x1="-45.6" y1="183.4" x2="-45.6" y2="644.3"/>
		<line class="st1" x1="-20" y1="209" x2="-839.4" y2="209"/>
		<line class="st1" x1="-20" y1="234.6" x2="-839.4" y2="234.6"/>
		<line class="st1" x1="-20" y1="260.2" x2="-839.4" y2="260.2"/>
		<line class="st1" x1="-20" y1="285.8" x2="-839.4" y2="285.8"/>
		<line class="st1" x1="-20" y1="311.4" x2="-839.4" y2="311.4"/>
		<line class="st1" x1="-20" y1="337.1" x2="-839.4" y2="337.1"/>
		<line class="st1" x1="-20" y1="362.7" x2="-839.4" y2="362.7"/>
		<line class="st1" x1="-20" y1="388.3" x2="-839.4" y2="388.3"/>
		<line class="st1" x1="-20" y1="413.9" x2="-839.4" y2="413.9"/>
		<line class="st1" x1="-20" y1="439.5" x2="-839.4" y2="439.5"/>
		<line class="st1" x1="-20" y1="465.1" x2="-839.4" y2="465.1"/>
		<line class="st1" x1="-20" y1="490.7" x2="-839.4" y2="490.7"/>
		<line class="st1" x1="-20" y1="516.3" x2="-839.4" y2="516.3"/>
		<line class="st1" x1="-20" y1="541.9" x2="-839.4" y2="541.9"/>
		<line class="st1" x1="-20" y1="567.5" x2="-839.4" y2="567.5"/>
		<line class="st1" x1="-20" y1="618.7" x2="-839.4" y2="618.7"/>
		<line class="st1" x1="-20" y1="593.1" x2="-839.4" y2="593.1"/>
	</g>
</g>
<g>
	<defs>
		<polygon id="SVGID_11_" points="820,644.3 -0.2,644.3 -0.2,332.3 819.9,332 		"/>
	</defs>
	<clipPath id="SVGID_12_">
		<use xlink:href="#SVGID_11_"  style="overflow:visible;"/>
	</clipPath>
	<g class="st6">
		<line class="st1" x1="26.2" y1="183.4" x2="26.2" y2="644.3"/>
		<line class="st1" x1="51.8" y1="183.4" x2="51.8" y2="644.3"/>
		<line class="st1" x1="77.4" y1="183.4" x2="77.4" y2="644.3"/>
		<line class="st1" x1="103" y1="183.4" x2="103" y2="644.3"/>
		<line class="st1" x1="128.6" y1="183.4" x2="128.6" y2="644.3"/>
		<line class="st1" x1="154.2" y1="183.4" x2="154.2" y2="644.3"/>
		<line class="st1" x1="179.8" y1="183.4" x2="179.8" y2="644.3"/>
		<line class="st1" x1="205.4" y1="183.4" x2="205.4" y2="644.3"/>
		<line class="st1" x1="231" y1="183.4" x2="231" y2="644.3"/>
		<line class="st1" x1="256.6" y1="183.4" x2="256.6" y2="644.3"/>
		<line class="st1" x1="282.2" y1="183.4" x2="282.2" y2="644.3"/>
		<line class="st1" x1="307.9" y1="183.4" x2="307.9" y2="644.3"/>
		<line class="st1" x1="333.5" y1="183.4" x2="333.5" y2="644.3"/>
		<line class="st1" x1="359.1" y1="183.4" x2="359.1" y2="644.3"/>
		<line class="st1" x1="384.7" y1="183.4" x2="384.7" y2="644.3"/>
		<line class="st1" x1="410.3" y1="183.4" x2="410.3" y2="644.3"/>
		<line class="st1" x1="435.9" y1="183.4" x2="435.9" y2="644.3"/>
		<line class="st1" x1="461.5" y1="183.4" x2="461.5" y2="644.3"/>
		<line class="st1" x1="487.1" y1="183.4" x2="487.1" y2="644.3"/>
		<line class="st1" x1="512.7" y1="183.4" x2="512.7" y2="644.3"/>
		<line class="st1" x1="538.3" y1="183.4" x2="538.3" y2="644.3"/>
		<line class="st1" x1="563.9" y1="183.4" x2="563.9" y2="644.3"/>
		<line class="st1" x1="589.5" y1="183.4" x2="589.5" y2="644.3"/>
		<line class="st1" x1="615.1" y1="183.4" x2="615.1" y2="644.3"/>
		<line class="st1" x1="640.7" y1="183.4" x2="640.7" y2="644.3"/>
		<line class="st1" x1="666.4" y1="183.4" x2="666.4" y2="644.3"/>
		<line class="st1" x1="692" y1="183.4" x2="692" y2="644.3"/>
		<line class="st1" x1="717.6" y1="183.4" x2="717.6" y2="644.3"/>
		<line class="st1" x1="743.2" y1="183.4" x2="743.2" y2="644.3"/>
		<line class="st1" x1="768.8" y1="183.4" x2="768.8" y2="644.3"/>
		<line class="st1" x1="794.4" y1="183.4" x2="794.4" y2="644.3"/>
		<line class="st1" x1="820" y1="209" x2="0.6" y2="209"/>
		<line class="st1" x1="820" y1="234.6" x2="0.6" y2="234.6"/>
		<line class="st1" x1="820" y1="260.2" x2="0.6" y2="260.2"/>
		<line class="st1" x1="820" y1="285.8" x2="0.6" y2="285.8"/>
		<line class="st1" x1="820" y1="311.4" x2="0.6" y2="311.4"/>
		<line class="st1" x1="820" y1="337.1" x2="0.6" y2="337.1"/>
		<line class="st1" x1="820" y1="362.7" x2="0.6" y2="362.7"/>
		<line class="st1" x1="820" y1="388.3" x2="0.6" y2="388.3"/>
		<line class="st1" x1="820" y1="413.9" x2="0.6" y2="413.9"/>
		<line class="st1" x1="820" y1="439.5" x2="0.6" y2="439.5"/>
		<line class="st1" x1="820" y1="465.1" x2="0.6" y2="465.1"/>
		<line class="st1" x1="820" y1="490.7" x2="0.6" y2="490.7"/>
		<line class="st1" x1="820" y1="516.3" x2="0.6" y2="516.3"/>
		<line class="st1" x1="820" y1="541.9" x2="0.6" y2="541.9"/>
		<line class="st1" x1="820" y1="567.5" x2="0.6" y2="567.5"/>
		<line class="st1" x1="820" y1="618.7" x2="0.6" y2="618.7"/>
		<line class="st1" x1="820" y1="593.1" x2="0.6" y2="593.1"/>
	</g>
</g>
<g>
	<defs>
		<polygon id="SVGID_13_" points="1660,981.8 839.8,981.8 839.8,669.8 1659.9,669.5 		"/>
	</defs>
	<clipPath id="SVGID_14_">
		<use xlink:href="#SVGID_13_"  style="overflow:visible;"/>
	</clipPath>
	<g class="st7">
		<line class="st1" x1="866.2" y1="520.9" x2="866.2" y2="981.8"/>
		<line class="st1" x1="891.8" y1="520.9" x2="891.8" y2="981.8"/>
		<line class="st1" x1="917.4" y1="520.9" x2="917.4" y2="981.8"/>
		<line class="st1" x1="943" y1="520.9" x2="943" y2="981.8"/>
		<line class="st1" x1="968.6" y1="520.9" x2="968.6" y2="981.8"/>
		<line class="st1" x1="994.2" y1="520.9" x2="994.2" y2="981.8"/>
		<line class="st1" x1="1019.8" y1="520.9" x2="1019.8" y2="981.8"/>
		<line class="st1" x1="1045.4" y1="520.9" x2="1045.4" y2="981.8"/>
		<line class="st1" x1="1071" y1="520.9" x2="1071" y2="981.8"/>
		<line class="st1" x1="1096.6" y1="520.9" x2="1096.6" y2="981.8"/>
		<line class="st1" x1="1122.2" y1="520.9" x2="1122.2" y2="981.8"/>
		<line class="st1" x1="1147.9" y1="520.9" x2="1147.9" y2="981.8"/>
		<line class="st1" x1="1173.5" y1="520.9" x2="1173.5" y2="981.8"/>
		<line class="st1" x1="1199.1" y1="520.9" x2="1199.1" y2="981.8"/>
		<line class="st1" x1="1224.7" y1="520.9" x2="1224.7" y2="981.8"/>
		<line class="st1" x1="1250.3" y1="520.9" x2="1250.3" y2="981.8"/>
		<line class="st1" x1="1275.9" y1="520.9" x2="1275.9" y2="981.8"/>
		<line class="st1" x1="1301.5" y1="520.9" x2="1301.5" y2="981.8"/>
		<line class="st1" x1="1327.1" y1="520.9" x2="1327.1" y2="981.8"/>
		<line class="st1" x1="1352.7" y1="520.9" x2="1352.7" y2="981.8"/>
		<line class="st1" x1="1378.3" y1="520.9" x2="1378.3" y2="981.8"/>
		<line class="st1" x1="1403.9" y1="520.9" x2="1403.9" y2="981.8"/>
		<line class="st1" x1="1429.5" y1="520.9" x2="1429.5" y2="981.8"/>
		<line class="st1" x1="1455.1" y1="520.9" x2="1455.1" y2="981.8"/>
		<line class="st1" x1="1480.7" y1="520.9" x2="1480.7" y2="981.8"/>
		<line class="st1" x1="1506.4" y1="520.9" x2="1506.4" y2="981.8"/>
		<line class="st1" x1="1532" y1="520.9" x2="1532" y2="981.8"/>
		<line class="st1" x1="1557.6" y1="520.9" x2="1557.6" y2="981.8"/>
		<line class="st1" x1="1583.2" y1="520.9" x2="1583.2" y2="981.8"/>
		<line class="st1" x1="1608.8" y1="520.9" x2="1608.8" y2="981.8"/>
		<line class="st1" x1="1634.4" y1="520.9" x2="1634.4" y2="981.8"/>
		<line class="st1" x1="1660" y1="546.5" x2="840.6" y2="546.5"/>
		<line class="st1" x1="1660" y1="572.1" x2="840.6" y2="572.1"/>
		<line class="st1" x1="1660" y1="597.7" x2="840.6" y2="597.7"/>
		<line class="st1" x1="1660" y1="623.3" x2="840.6" y2="623.3"/>
		<line class="st1" x1="1660" y1="648.9" x2="840.6" y2="648.9"/>
		<line class="st1" x1="1660" y1="674.6" x2="840.6" y2="674.6"/>
		<line class="st1" x1="1660" y1="700.2" x2="840.6" y2="700.2"/>
		<line class="st1" x1="1660" y1="725.8" x2="840.6" y2="725.8"/>
		<line class="st1" x1="1660" y1="751.4" x2="840.6" y2="751.4"/>
		<line class="st1" x1="1660" y1="777" x2="840.6" y2="777"/>
		<line class="st1" x1="1660" y1="802.6" x2="840.6" y2="802.6"/>
		<line class="st1" x1="1660" y1="828.2" x2="840.6" y2="828.2"/>
		<line class="st1" x1="1660" y1="853.8" x2="840.6" y2="853.8"/>
		<line class="st1" x1="1660" y1="879.4" x2="840.6" y2="879.4"/>
		<line class="st1" x1="1660" y1="905" x2="840.6" y2="905"/>
		<line class="st1" x1="1660" y1="956.2" x2="840.6" y2="956.2"/>
		<line class="st1" x1="1660" y1="930.6" x2="840.6" y2="930.6"/>
	</g>
</g>
<g>
	<defs>
		<polygon id="SVGID_15_" points="1660,644.3 839.8,644.3 839.8,332.3 1659.9,332 		"/>
	</defs>
	<clipPath id="SVGID_16_">
		<use xlink:href="#SVGID_15_"  style="overflow:visible;"/>
	</clipPath>
	<g class="st8">
		<line class="st1" x1="866.2" y1="183.4" x2="866.2" y2="644.3"/>
		<line class="st1" x1="891.8" y1="183.4" x2="891.8" y2="644.3"/>
		<line class="st1" x1="917.4" y1="183.4" x2="917.4" y2="644.3"/>
		<line class="st1" x1="943" y1="183.4" x2="943" y2="644.3"/>
		<line class="st1" x1="968.6" y1="183.4" x2="968.6" y2="644.3"/>
		<line class="st1" x1="994.2" y1="183.4" x2="994.2" y2="644.3"/>
		<line class="st1" x1="1019.8" y1="183.4" x2="1019.8" y2="644.3"/>
		<line class="st1" x1="1045.4" y1="183.4" x2="1045.4" y2="644.3"/>
		<line class="st1" x1="1071" y1="183.4" x2="1071" y2="644.3"/>
		<line class="st1" x1="1096.6" y1="183.4" x2="1096.6" y2="644.3"/>
		<line class="st1" x1="1122.2" y1="183.4" x2="1122.2" y2="644.3"/>
		<line class="st1" x1="1147.9" y1="183.4" x2="1147.9" y2="644.3"/>
		<line class="st1" x1="1173.5" y1="183.4" x2="1173.5" y2="644.3"/>
		<line class="st1" x1="1199.1" y1="183.4" x2="1199.1" y2="644.3"/>
		<line class="st1" x1="1224.7" y1="183.4" x2="1224.7" y2="644.3"/>
		<line class="st1" x1="1250.3" y1="183.4" x2="1250.3" y2="644.3"/>
		<line class="st1" x1="1275.9" y1="183.4" x2="1275.9" y2="644.3"/>
		<line class="st1" x1="1301.5" y1="183.4" x2="1301.5" y2="644.3"/>
		<line class="st1" x1="1327.1" y1="183.4" x2="1327.1" y2="644.3"/>
		<line class="st1" x1="1352.7" y1="183.4" x2="1352.7" y2="644.3"/>
		<line class="st1" x1="1378.3" y1="183.4" x2="1378.3" y2="644.3"/>
		<line class="st1" x1="1403.9" y1="183.4" x2="1403.9" y2="644.3"/>
		<line class="st1" x1="1429.5" y1="183.4" x2="1429.5" y2="644.3"/>
		<line class="st1" x1="1455.1" y1="183.4" x2="1455.1" y2="644.3"/>
		<line class="st1" x1="1480.7" y1="183.4" x2="1480.7" y2="644.3"/>
		<line class="st1" x1="1506.4" y1="183.4" x2="1506.4" y2="644.3"/>
		<line class="st1" x1="1532" y1="183.4" x2="1532" y2="644.3"/>
		<line class="st1" x1="1557.6" y1="183.4" x2="1557.6" y2="644.3"/>
		<line class="st1" x1="1583.2" y1="183.4" x2="1583.2" y2="644.3"/>
		<line class="st1" x1="1608.8" y1="183.4" x2="1608.8" y2="644.3"/>
		<line class="st1" x1="1634.4" y1="183.4" x2="1634.4" y2="644.3"/>
		<line class="st1" x1="1660" y1="209" x2="840.6" y2="209"/>
		<line class="st1" x1="1660" y1="234.6" x2="840.6" y2="234.6"/>
		<line class="st1" x1="1660" y1="260.2" x2="840.6" y2="260.2"/>
		<line class="st1" x1="1660" y1="285.8" x2="840.6" y2="285.8"/>
		<line class="st1" x1="1660" y1="311.4" x2="840.6" y2="311.4"/>
		<line class="st1" x1="1660" y1="337.1" x2="840.6" y2="337.1"/>
		<line class="st1" x1="1660" y1="362.7" x2="840.6" y2="362.7"/>
		<line class="st1" x1="1660" y1="388.3" x2="840.6" y2="388.3"/>
		<line class="st1" x1="1660" y1="413.9" x2="840.6" y2="413.9"/>
		<line class="st1" x1="1660" y1="439.5" x2="840.6" y2="439.5"/>
		<line class="st1" x1="1660" y1="465.1" x2="840.6" y2="465.1"/>
		<line class="st1" x1="1660" y1="490.7" x2="840.6" y2="490.7"/>
		<line class="st1" x1="1660" y1="516.3" x2="840.6" y2="516.3"/>
		<line class="st1" x1="1660" y1="541.9" x2="840.6" y2="541.9"/>
		<line class="st1" x1="1660" y1="567.5" x2="840.6" y2="567.5"/>
		<line class="st1" x1="1660" y1="618.7" x2="840.6" y2="618.7"/>
		<line class="st1" x1="1660" y1="593.1" x2="840.6" y2="593.1"/>
	</g>
</g>
</svg>
